<svg width="53" height="10" viewBox="0 0 53 10" fill="none" xmlns="http://www.w3.org/2000/svg">
<path d="M6.03791 7.73989H2.01264L1.27114 9.79225H0L3.33674 0.616211H4.72705L8.05055 9.79225H6.77941L6.03791 7.73989ZM5.69364 6.76005L4.02528 2.09921L2.3569 6.76005H5.69364Z" fill="white"/>
<path d="M12.206 8.68L14.4569 2.53616H15.7413L12.8945 9.79225H11.4909L8.64412 2.53616H9.94174L12.206 8.68Z" fill="white"/>
<path d="M20.0916 9.91142C19.4119 9.91142 18.794 9.75693 18.2379 9.44798C17.6906 9.13902 17.258 8.70207 16.9403 8.13712C16.6313 7.56334 16.4768 6.90129 16.4768 6.15096C16.4768 5.40946 16.6357 4.75624 16.9535 4.19129C17.2801 3.61751 17.7215 3.18056 18.2776 2.88043C18.8337 2.57148 19.456 2.417 20.1446 2.417C20.8331 2.417 21.4554 2.57148 22.0116 2.88043C22.5677 3.18056 23.0046 3.6131 23.3224 4.17805C23.649 4.743 23.8123 5.40064 23.8123 6.15096C23.8123 6.90129 23.6446 7.56334 23.3092 8.13712C22.9826 8.70207 22.5368 9.13902 21.9718 9.44798C21.4069 9.75693 20.7801 9.91142 20.0916 9.91142ZM20.0916 8.85214C20.5242 8.85214 20.9302 8.75062 21.3098 8.54759C21.6894 8.34456 21.9939 8.04002 22.2234 7.63396C22.4618 7.2279 22.5809 6.73357 22.5809 6.15096C22.5809 5.56836 22.4662 5.07402 22.2367 4.66796C22.0071 4.26191 21.707 3.96178 21.3363 3.76758C20.9655 3.56455 20.5639 3.46303 20.1313 3.46303C19.69 3.46303 19.2839 3.56455 18.9132 3.76758C18.5512 3.96178 18.2599 4.26191 18.0392 4.66796C17.8186 5.07402 17.7082 5.56836 17.7082 6.15096C17.7082 6.74239 17.8141 7.24114 18.026 7.6472C18.2467 8.05326 18.538 8.3578 18.8999 8.56083C19.2618 8.75503 19.6591 8.85214 20.0916 8.85214Z" fill="white"/>
<path d="M24.9464 6.15096C24.9464 5.40064 25.0965 4.74742 25.3966 4.19129C25.6967 3.62634 26.1116 3.18939 26.6413 2.88043C27.1797 2.57148 27.7932 2.417 28.4818 2.417C29.3733 2.417 30.106 2.63326 30.6798 3.0658C31.2624 3.49834 31.6464 4.09861 31.8317 4.86659H30.5341C30.4105 4.42522 30.1678 4.07653 29.8059 3.82054C29.4528 3.56455 29.0114 3.43655 28.4818 3.43655C27.7932 3.43655 27.2371 3.67489 26.8134 4.15157C26.3897 4.61942 26.1778 5.28588 26.1778 6.15096C26.1778 7.02487 26.3897 7.70017 26.8134 8.17684C27.2371 8.65352 27.7932 8.89186 28.4818 8.89186C29.0114 8.89186 29.4528 8.76827 29.8059 8.52111C30.159 8.27394 30.4017 7.92084 30.5341 7.46182H31.8317C31.6375 8.20332 31.2492 8.79917 30.6666 9.24937C30.0839 9.69073 29.3557 9.91142 28.4818 9.91142C27.7932 9.91142 27.1797 9.75693 26.6413 9.44798C26.1116 9.13902 25.6967 8.70207 25.3966 8.13712C25.0965 7.57217 24.9464 6.91011 24.9464 6.15096Z" fill="white"/>
<path d="M32.9893 6.13772C32.9893 5.39622 33.1394 4.74742 33.4395 4.19129C33.7396 3.62634 34.1501 3.18939 34.6709 2.88043C35.2006 2.57148 35.7876 2.417 36.432 2.417C37.0675 2.417 37.6193 2.55382 38.0871 2.82746C38.555 3.10111 38.9036 3.44538 39.1331 3.86027V2.53616H40.3513V9.79225H39.1331V8.44166C38.8948 8.86537 38.5373 9.21847 38.0606 9.50095C37.5928 9.77459 37.0455 9.91142 36.4187 9.91142C35.7743 9.91142 35.1917 9.75252 34.6709 9.43474C34.1501 9.11695 33.7396 8.67117 33.4395 8.09739C33.1394 7.52362 32.9893 6.87039 32.9893 6.13772ZM39.1331 6.15096C39.1331 5.60366 39.0228 5.12699 38.8021 4.72093C38.5814 4.31488 38.2813 4.00592 37.9017 3.79406C37.531 3.57338 37.1205 3.46303 36.6703 3.46303C36.2201 3.46303 35.8097 3.56896 35.4389 3.78082C35.0682 3.99268 34.7724 4.30163 34.5518 4.70769C34.3311 5.11375 34.2207 5.59042 34.2207 6.13772C34.2207 6.69384 34.3311 7.17935 34.5518 7.59423C34.7724 8.00029 35.0682 8.31367 35.4389 8.53435C35.8097 8.74621 36.2201 8.85214 36.6703 8.85214C37.1205 8.85214 37.531 8.74621 37.9017 8.53435C38.2813 8.31367 38.5814 8.00029 38.8021 7.59423C39.0228 7.17935 39.1331 6.69826 39.1331 6.15096Z" fill="white"/>
<path d="M43.8573 3.52924V7.80609C43.8573 8.15919 43.9323 8.41077 44.0824 8.56083C44.2325 8.70207 44.4929 8.77269 44.8636 8.77269H45.7508V9.79225H44.665C43.9941 9.79225 43.491 9.63777 43.1555 9.32882C42.8201 9.01986 42.6524 8.51228 42.6524 7.80609V3.52924H41.7123V2.53616H42.6524V0.708896H43.8573V2.53616H45.7508V3.52924H43.8573Z" fill="white"/>
<path d="M49.7795 9.91142C49.2233 9.91142 48.7246 9.81873 48.2832 9.63335C47.8418 9.43915 47.4932 9.17434 47.2372 8.8389C46.9812 8.49463 46.8399 8.10181 46.8135 7.66044H48.0581C48.0934 8.02237 48.2612 8.31808 48.5613 8.54759C48.8702 8.7771 49.2719 8.89186 49.7662 8.89186C50.2252 8.89186 50.5872 8.79034 50.852 8.58731C51.1168 8.38428 51.2492 8.12829 51.2492 7.81933C51.2492 7.50155 51.108 7.26762 50.8255 7.11756C50.543 6.95866 50.1061 6.80418 49.5146 6.65412C48.9762 6.51288 48.5348 6.37165 48.1905 6.23041C47.8551 6.08035 47.5638 5.86407 47.3166 5.5816C47.0783 5.2903 46.9591 4.91072 46.9591 4.44287C46.9591 4.07212 47.0695 3.73227 47.2901 3.42331C47.5108 3.11436 47.8242 2.8716 48.2303 2.69506C48.6363 2.50968 49.0998 2.417 49.6206 2.417C50.4239 2.417 51.0727 2.62002 51.567 3.02607C52.0613 3.43213 52.3261 3.98826 52.3615 4.69445H51.1565C51.13 4.31488 50.9756 4.01033 50.6931 3.78082C50.4194 3.55131 50.0487 3.43655 49.5808 3.43655C49.1483 3.43655 48.804 3.52924 48.548 3.71462C48.292 3.89999 48.1641 4.14274 48.1641 4.44287C48.1641 4.68121 48.2391 4.87982 48.3891 5.03872C48.548 5.18878 48.7422 5.31237 48.9718 5.40947C49.2101 5.49774 49.5367 5.59926 49.9516 5.71401C50.4724 5.85525 50.8961 5.99648 51.2227 6.13772C51.5493 6.27013 51.8274 6.47316 52.0569 6.74681C52.2953 7.02046 52.4188 7.37796 52.4277 7.81933C52.4277 8.21656 52.3173 8.57408 52.0966 8.89186C51.876 9.20965 51.5626 9.46122 51.1565 9.6466C50.7593 9.82315 50.3003 9.91142 49.7795 9.91142Z" fill="white"/>
</svg>
