<svg width="35" height="7" viewBox="0 0 35 7" fill="none" xmlns="http://www.w3.org/2000/svg">
<path d="M3.92267 4.98109H1.30756L0.825825 6.31445H0L2.16779 0.353027H3.07104L5.23023 6.31445H4.4044L3.92267 4.98109ZM3.69901 4.34452L2.61512 1.31649L1.53122 4.34452H3.69901Z" fill="#212C34"/>
<path d="M7.92989 5.59186L9.39228 1.60037H10.2267L8.3772 6.31445H7.46536L5.61586 1.60037H6.45888L7.92989 5.59186Z" fill="#212C34"/>
<path d="M13.053 6.39188C12.6114 6.39188 12.21 6.29151 11.8487 6.09079C11.4931 5.89007 11.2121 5.60619 11.0056 5.23916C10.8049 4.86639 10.7045 4.43627 10.7045 3.94881C10.7045 3.46708 10.8078 3.0427 11.0142 2.67566C11.2264 2.30289 11.5132 2.01902 11.8745 1.82403C12.2358 1.62331 12.6401 1.52295 13.0874 1.52295C13.5347 1.52295 13.939 1.62331 14.3003 1.82403C14.6616 2.01902 14.9455 2.30002 15.152 2.66706C15.3641 3.03409 15.4702 3.46134 15.4702 3.94881C15.4702 4.43627 15.3613 4.86639 15.1434 5.23916C14.9312 5.60619 14.6416 5.89007 14.2745 6.09079C13.9075 6.29151 13.5003 6.39188 13.053 6.39188ZM13.053 5.70369C13.334 5.70369 13.5978 5.63774 13.8444 5.50583C14.091 5.37393 14.2889 5.17607 14.438 4.91227C14.5928 4.64846 14.6702 4.32731 14.6702 3.94881C14.6702 3.5703 14.5957 3.24915 14.4466 2.98534C14.2975 2.72154 14.1025 2.52655 13.8616 2.40039C13.6207 2.26848 13.3598 2.20253 13.0788 2.20253C12.792 2.20253 12.5282 2.26848 12.2874 2.40039C12.0522 2.52655 11.863 2.72154 11.7196 2.98534C11.5762 3.24915 11.5046 3.5703 11.5046 3.94881C11.5046 4.33305 11.5734 4.65707 11.711 4.92087C11.8544 5.18468 12.0436 5.38253 12.2788 5.51443C12.5139 5.6406 12.772 5.70369 13.053 5.70369Z" fill="#212C34"/>
<path d="M16.207 3.94881C16.207 3.46134 16.3045 3.03696 16.4995 2.67566C16.6945 2.30863 16.964 2.02475 17.3081 1.82403C17.6579 1.62331 18.0565 1.52295 18.5038 1.52295C19.0831 1.52295 19.5591 1.66345 19.9318 1.94446C20.3103 2.22547 20.5598 2.61545 20.6802 3.11438H19.8372C19.7569 2.82764 19.5992 2.60111 19.3641 2.4348C19.1347 2.26848 18.8479 2.18533 18.5038 2.18533C18.0565 2.18533 17.6952 2.34017 17.42 2.64985C17.1447 2.9538 17.007 3.38679 17.007 3.94881C17.007 4.51656 17.1447 4.95528 17.42 5.26497C17.6952 5.57465 18.0565 5.7295 18.5038 5.7295C18.8479 5.7295 19.1347 5.64921 19.3641 5.48863C19.5935 5.32805 19.7512 5.09865 19.8372 4.80044H20.6802C20.5541 5.28217 20.3017 5.66928 19.9232 5.96176C19.5447 6.2485 19.0716 6.39188 18.5038 6.39188C18.0565 6.39188 17.6579 6.29151 17.3081 6.09079C16.964 5.89007 16.6945 5.60619 16.4995 5.23916C16.3045 4.87213 16.207 4.44201 16.207 3.94881Z" fill="#212C34"/>
<path d="M21.4323 3.9402C21.4323 3.45847 21.5298 3.03696 21.7248 2.67566C21.9197 2.30863 22.1864 2.02475 22.5248 1.82403C22.8689 1.62331 23.2502 1.52295 23.6689 1.52295C24.0818 1.52295 24.4402 1.61184 24.7442 1.78962C25.0481 1.9674 25.2747 2.19107 25.4238 2.46061V1.60037H26.2152V6.31445H25.4238V5.43701C25.2689 5.71229 25.0367 5.94169 24.727 6.1252C24.423 6.30298 24.0675 6.39188 23.6603 6.39188C23.2416 6.39188 22.8631 6.28864 22.5248 6.08219C22.1864 5.87573 21.9197 5.58612 21.7248 5.21335C21.5298 4.84058 21.4323 4.4162 21.4323 3.9402ZM25.4238 3.94881C25.4238 3.59324 25.3521 3.28356 25.2087 3.01976C25.0653 2.75595 24.8703 2.55523 24.6237 2.41759C24.3829 2.27422 24.1162 2.20253 23.8237 2.20253C23.5312 2.20253 23.2646 2.27135 23.0237 2.40899C22.7828 2.54663 22.5907 2.74735 22.4473 3.01115C22.304 3.27496 22.2323 3.58464 22.2323 3.9402C22.2323 4.3015 22.304 4.61692 22.4473 4.88646C22.5907 5.15027 22.7828 5.35386 23.0237 5.49723C23.2646 5.63487 23.5312 5.70369 23.8237 5.70369C24.1162 5.70369 24.3829 5.63487 24.6237 5.49723C24.8703 5.35386 25.0653 5.15027 25.2087 4.88646C25.3521 4.61692 25.4238 4.30437 25.4238 3.94881Z" fill="#212C34"/>
<path d="M28.4929 2.24554V5.0241C28.4929 5.2535 28.5417 5.41694 28.6392 5.51443C28.7367 5.60619 28.9058 5.65207 29.1467 5.65207H29.7231V6.31445H29.0177C28.5818 6.31445 28.2549 6.2141 28.037 6.01337C27.8191 5.81265 27.7101 5.48289 27.7101 5.0241V2.24554H27.0993V1.60037H27.7101V0.413242H28.4929V1.60037H29.7231V2.24554H28.4929Z" fill="#212C34"/>
<path d="M32.3404 6.39188C31.9791 6.39188 31.6551 6.33166 31.3683 6.21122C31.0816 6.08506 30.855 5.91301 30.6887 5.69509C30.5224 5.47143 30.4307 5.21622 30.4135 4.92948H31.2221C31.245 5.16461 31.354 5.35673 31.549 5.50583C31.7497 5.65494 32.0106 5.7295 32.3318 5.7295C32.63 5.7295 32.8651 5.66354 33.0372 5.53164C33.2092 5.39974 33.2952 5.23342 33.2952 5.0327C33.2952 4.82625 33.2035 4.67427 33.02 4.57678C32.8365 4.47355 32.5526 4.37319 32.1683 4.2757C31.8185 4.18394 31.5318 4.09218 31.3081 4.00042C31.0902 3.90293 30.9009 3.76242 30.7403 3.57891C30.5855 3.38966 30.5081 3.14306 30.5081 2.83911C30.5081 2.59824 30.5798 2.37745 30.7231 2.17673C30.8665 1.97601 31.0701 1.8183 31.3339 1.7036C31.5977 1.58317 31.8988 1.52295 32.2372 1.52295C32.759 1.52295 33.1805 1.65485 33.5017 1.91865C33.8229 2.18246 33.9949 2.54376 34.0178 3.00255H33.235C33.2178 2.75595 33.1175 2.5581 32.9339 2.40899C32.7562 2.25988 32.5153 2.18533 32.2113 2.18533C31.9303 2.18533 31.7067 2.24555 31.5404 2.36598C31.3741 2.48641 31.2909 2.64412 31.2909 2.83911C31.2909 2.99395 31.3396 3.12298 31.4371 3.22621C31.5404 3.3237 31.6665 3.404 31.8156 3.46708C31.9705 3.52443 32.1827 3.59038 32.4522 3.66493C32.7906 3.75669 33.0658 3.84845 33.278 3.9402C33.4902 4.02623 33.6709 4.15813 33.82 4.33591C33.9748 4.5137 34.0551 4.74596 34.0609 5.0327C34.0609 5.29077 33.9892 5.52304 33.8458 5.7295C33.7024 5.93595 33.4988 6.0994 33.235 6.21983C32.977 6.33453 32.6787 6.39188 32.3404 6.39188Z" fill="#212C34"/>
</svg>
