<svg width="40" height="41" viewBox="0 0 40 41" fill="none" xmlns="http://www.w3.org/2000/svg">
<path d="M19.9829 4.28613C10.7829 4.28613 3.33289 11.7528 3.33289 20.9528C3.33289 30.1528 10.7829 37.6195 19.9829 37.6195C29.1996 37.6195 36.6662 30.1528 36.6662 20.9528C36.6662 11.7528 29.1996 4.28613 19.9829 4.28613ZM19.9996 34.2861C12.6329 34.2861 6.66622 28.3195 6.66622 20.9528C6.66622 13.5861 12.6329 7.61947 19.9996 7.61947C27.3662 7.61947 33.3329 13.5861 33.3329 20.9528C33.3329 28.3195 27.3662 34.2861 19.9996 34.2861ZM19.6329 12.6195H19.5329C18.8662 12.6195 18.3329 13.1528 18.3329 13.8195V21.6861C18.3329 22.2695 18.6329 22.8195 19.1496 23.1195L26.0662 27.2695C26.6329 27.6028 27.3662 27.4361 27.6996 26.8695C28.0496 26.3028 27.8662 25.5528 27.2829 25.2195L20.8329 21.3861V13.8195C20.8329 13.1528 20.2996 12.6195 19.6329 12.6195Z" fill="white"/>
</svg>
