<svg width="133" height="32" viewBox="0 0 133 32" fill="none" xmlns="http://www.w3.org/2000/svg">
<path d="M13.0326 0.513607C8.94644 2.10504 6.45176 8.90089 6.45176 15.6967C6.45176 22.5356 8.94644 29.4175 13.0756 31.181C4.0431 30.9659 0 23.3958 0 15.8688C0 8.1697 4.17214 0.470596 13.0326 0.513607ZM14.796 0.513607C23.6565 0.470596 27.8286 8.1697 27.8286 15.8688C27.8286 23.3958 23.7855 30.9659 14.796 31.181C18.8822 29.4175 21.3768 22.5356 21.3768 15.6967C21.3768 8.90089 18.8822 2.10504 14.796 0.513607Z" fill="black"/>
<path d="M39.593 9.33101C37.7005 12.2128 36.8402 15.1376 36.8402 17.7183C36.8402 22.9227 40.2381 26.8798 45.2275 26.8798C46.7329 26.8798 48.4104 26.5357 50.1308 25.7185C48.4964 29.7186 45.2705 31.353 42.0016 31.353C35.4638 31.353 31.3347 26.0626 31.3347 19.8689C31.3347 15.3957 33.6143 10.8794 39.593 9.33101ZM41.3995 9.33101H50.1308L47.163 18.0194C47.077 15.4817 45.0985 10.4923 41.3995 9.33101Z" fill="black"/>
<path d="M60.8865 4.21262H61.3596V9.33101H67.2092V11.4816H61.3596V30.8369H60.8865C57.5746 30.8369 55.338 28.6003 55.338 25.2884V11.4816H53.2304V9.33101H55.338C55.553 6.23417 57.7036 4.21262 60.8865 4.21262ZM67.1662 25.6755L69.3168 30.8369H62.693C64.9296 30.3207 66.8221 27.9551 67.1662 25.6755Z" fill="black"/>
<path d="M83.4884 25.2884V9.33101H83.9616C87.2735 9.33101 89.5101 11.5676 89.5101 14.8795V30.8369H89.037C85.7251 30.8369 83.4884 28.6003 83.4884 25.2884ZM82.0691 9.33101C78.3701 10.4923 76.2625 13.03 75.5743 15.4817L73.3377 9.33101H82.0691ZM82.0691 17.8043C78.6711 18.8796 77.2087 21.5033 77.2087 24.1701C77.2087 27.1379 79.0583 30.1057 82.1121 30.8369C81.0368 31.0089 80.0905 31.0949 79.1873 31.0949C73.6818 31.0949 71.1441 27.9981 71.1441 24.7722C71.1441 21.2453 74.1549 17.5893 79.6604 17.5893C80.3916 17.5893 81.2088 17.6323 82.0691 17.8043Z" fill="black"/>
<path d="M103.256 31.353L92.7608 9.33101H99.5137L106.611 24.1701L103.256 31.353ZM109.836 17.6323C109.363 13.9763 108.245 11.8257 105.492 9.33101H113.794L109.836 17.6323Z" fill="black"/>
<path d="M123.891 9.33101C129.525 9.20198 131.891 11.6536 131.891 14.3634C131.891 17.5893 128.493 21.2023 123.159 21.2023H122.815C125.052 19.6538 126.686 16.9441 126.686 14.3204C126.686 12.4709 125.869 10.6644 123.891 9.33101ZM122.17 9.33101C120.278 12.2128 119.417 15.1376 119.417 17.7183C119.417 22.9227 122.815 26.8798 127.805 26.8798C129.31 26.8798 130.988 26.5357 132.708 25.7185C131.031 29.7616 127.805 31.353 124.536 31.353C118.041 31.353 113.998 26.1486 113.998 19.9549C113.998 15.3957 116.278 10.7504 122.17 9.33101Z" fill="black"/>
</svg>
