<svg width="205" height="49" viewBox="0 0 205 49" fill="none" xmlns="http://www.w3.org/2000/svg">
<path d="M20.0602 0.911897C13.7707 3.36149 9.93078 13.8219 9.93078 24.2823C9.93078 34.8089 13.7707 45.4018 20.1264 48.1162C6.22329 47.7852 0 36.133 0 24.5471C0 12.6964 6.4219 0.845693 20.0602 0.911897ZM22.7746 0.911897C36.4128 0.845693 42.8347 12.6964 42.8347 24.5471C42.8347 36.133 36.6115 47.7852 22.7746 48.1162C29.0641 45.4018 32.904 34.8089 32.904 24.2823C32.904 13.8219 29.0641 3.36149 22.7746 0.911897Z" fill="white"/>
<path d="M60.9429 14.484C58.0299 18.9197 56.7058 23.4217 56.7058 27.394C56.7058 35.4048 61.936 41.4957 69.6158 41.4957C71.9329 41.4957 74.5149 40.966 77.1632 39.7081C74.6474 45.8652 69.682 48.381 64.6504 48.381C54.5872 48.381 48.2315 40.2378 48.2315 30.7042C48.2315 23.8189 51.7404 16.8673 60.9429 14.484ZM63.7235 14.484H77.1632L72.595 27.8574C72.4626 23.9513 69.4172 16.2715 63.7235 14.484Z" fill="white"/>
<path d="M93.7186 6.60554H94.4468V14.484H103.451V17.7942H94.4468V47.5865H93.7186C88.6208 47.5865 85.1781 44.1439 85.1781 39.0461V17.7942H81.9341V14.484H85.1781C85.5091 9.71719 88.8194 6.60554 93.7186 6.60554ZM103.385 39.6419L106.695 47.5865H96.4992C99.9419 46.7921 102.855 43.1508 103.385 39.6419Z" fill="white"/>
<path d="M128.508 39.0461V14.484H129.237C134.334 14.484 137.777 17.9266 137.777 23.0244V47.5865H137.049C131.951 47.5865 128.508 44.1439 128.508 39.0461ZM126.324 14.484C120.63 16.2715 117.386 20.1776 116.327 23.9513L112.884 14.484H126.324ZM126.324 27.5264C121.093 29.1815 118.842 33.22 118.842 37.3247C118.842 41.8929 121.689 46.4611 126.39 47.5865C124.735 47.8514 123.278 47.9838 121.888 47.9838C113.414 47.9838 109.507 43.217 109.507 38.2516C109.507 32.8228 114.142 27.1953 122.616 27.1953C123.742 27.1953 124.999 27.2616 126.324 27.5264Z" fill="white"/>
<path d="M158.935 48.381L142.781 14.484H153.175L164.099 37.3247L158.935 48.381ZM169.064 27.2616C168.336 21.6341 166.615 18.3239 162.377 14.484H175.155L169.064 27.2616Z" fill="white"/>
<path d="M190.697 14.484C199.37 14.2853 203.011 18.059 203.011 22.23C203.011 27.1953 197.781 32.7566 189.571 32.7566H189.042C192.484 30.3732 195 26.2023 195 22.1638C195 19.3169 193.742 16.5363 190.697 14.484ZM188.049 14.484C185.135 18.9197 183.811 23.4217 183.811 27.394C183.811 35.4048 189.042 41.4957 196.721 41.4957C199.039 41.4957 201.621 40.966 204.269 39.7081C201.687 45.9314 196.721 48.381 191.69 48.381C181.693 48.381 175.47 40.3702 175.47 30.8366C175.47 23.8189 178.978 16.6687 188.049 14.484Z" fill="white"/>
</svg>
