<svg width="500" height="117" viewBox="0 0 500 117" fill="none" xmlns="http://www.w3.org/2000/svg">
<path d="M49.3876 0.420353C34.0094 6.40977 24.6205 31.9862 24.6205 57.5626C24.6205 83.3009 34.0094 109.201 49.5495 115.838C15.5555 115.029 0.339111 86.5385 0.339111 58.2101C0.339111 29.2343 16.0411 0.258479 49.3876 0.420353ZM56.0245 0.420353C89.371 0.258479 105.073 29.2343 105.073 58.2101C105.073 86.5385 89.8566 115.029 56.0245 115.838C71.4027 109.201 80.7916 83.3009 80.7916 57.5626C80.7916 31.9862 71.4027 6.40977 56.0245 0.420353Z" fill="#1E1E1E"/>
<path d="M149.349 33.605C142.226 44.4507 138.989 55.4583 138.989 65.1708C138.989 84.7578 151.777 99.6504 170.554 99.6504C176.22 99.6504 182.533 98.3554 189.008 95.2798C182.857 110.334 170.716 116.486 158.414 116.486C133.809 116.486 118.268 96.5748 118.268 73.2646C118.268 56.4295 126.848 39.4325 149.349 33.605ZM156.147 33.605H189.008L177.839 66.304C177.515 56.7533 170.069 37.9756 156.147 33.605Z" fill="#1E1E1E"/>
<path d="M229.487 14.3417H231.268V33.605H253.283V41.6988H231.268V114.543H229.487C217.023 114.543 208.605 106.125 208.605 93.661V41.6988H200.674V33.605H208.605C209.415 21.9499 217.509 14.3417 229.487 14.3417ZM253.121 95.1179L261.215 114.543H236.286C244.704 112.601 251.826 103.697 253.121 95.1179Z" fill="#1E1E1E"/>
<path d="M314.551 93.661V33.605H316.332C328.796 33.605 337.214 42.0225 337.214 54.487V114.543H335.433C322.968 114.543 314.551 106.125 314.551 93.661ZM309.209 33.605C295.288 37.9756 287.356 47.5263 284.766 56.7533L276.348 33.605H309.209ZM309.209 65.4946C296.421 69.5415 290.917 79.4159 290.917 89.4522C290.917 100.622 297.878 111.791 309.371 114.543C305.324 115.191 301.763 115.514 298.363 115.514C277.643 115.514 268.092 103.859 268.092 91.7185C268.092 78.4447 279.424 64.6852 300.144 64.6852C302.896 64.6852 305.971 64.8471 309.209 65.4946Z" fill="#1E1E1E"/>
<path d="M388.946 116.486L349.448 33.605H374.862L401.572 89.4522L388.946 116.486ZM413.713 64.8471C411.932 51.0876 407.723 42.9938 397.363 33.605H428.605L413.713 64.8471Z" fill="#1E1E1E"/>
<path d="M466.606 33.605C487.811 33.1193 496.715 42.3463 496.715 52.5445C496.715 64.6852 483.926 78.2828 463.854 78.2828H462.559C470.976 72.4553 477.128 62.257 477.128 52.3826C477.128 45.4219 474.052 38.6231 466.606 33.605ZM460.131 33.605C453.008 44.4507 449.771 55.4583 449.771 65.1708C449.771 84.7578 462.559 99.6504 481.336 99.6504C487.002 99.6504 493.315 98.3554 499.79 95.2798C493.477 110.496 481.336 116.486 469.034 116.486C444.591 116.486 429.374 96.8986 429.374 73.5884C429.374 56.4295 437.954 38.9469 460.131 33.605Z" fill="#1E1E1E"/>
</svg>
