<svg width="289" height="81" viewBox="0 0 289 81" fill="none" xmlns="http://www.w3.org/2000/svg">
<path d="M26.9497 0.948607C18.6471 4.18226 13.5781 17.9908 13.5781 31.7994C13.5781 45.6954 18.6471 59.6788 27.0371 63.262C8.68396 62.825 0.46875 47.4433 0.46875 32.149C0.46875 16.5051 8.94615 0.861212 26.9497 0.948607ZM30.5329 0.948607C48.5365 0.861212 57.0139 16.5051 57.0139 32.149C57.0139 47.4433 48.7986 62.825 30.5329 63.262C38.8355 59.6788 43.9045 45.6954 43.9045 31.7994C43.9045 17.9908 38.8355 4.18226 30.5329 0.948607Z" fill="#1E1E1E"/>
<path d="M94.3769 18.253C102.68 18.253 102.68 31.6246 93.1534 31.6246C91.8425 24.8077 84.8508 24.0212 80.8306 29.0027C83.1029 21.7489 88.9584 18.253 94.3769 18.253ZM78.1213 30.1389V62.5628H65.8859V18.8648H66.7599C73.5767 18.8648 78.1213 23.4094 78.1213 30.1389Z" fill="#1E1E1E"/>
<path d="M121.889 62.5628C131.415 60.0284 136.222 50.677 136.222 41.2382C136.222 31.275 130.803 21.1371 119.791 18.8648C121.976 18.4278 124.161 18.253 126.084 18.253C141.203 18.253 148.545 29.7019 148.545 41.0634C148.545 52.1627 141.553 63.1746 127.832 63.1746C125.996 63.1746 123.986 62.9998 121.889 62.5628ZM118.917 30.1389V80.0421H106.682V18.8648H107.643C114.373 18.8648 118.917 23.4094 118.917 30.1389Z" fill="#1E1E1E"/>
<path d="M168.738 1.38559H169.699V62.5628H157.464V12.6597C157.464 5.93019 161.921 1.38559 168.738 1.38559ZM185.081 34.5087C185.081 28.0414 182.284 25.3321 179.138 25.3321C176.866 25.3321 174.419 26.7304 172.496 29.0027C174.856 21.8363 180.624 18.253 186.042 18.253C191.898 18.253 197.316 22.448 197.316 30.6633V62.5628H185.081V34.5087Z" fill="#1E1E1E"/>
<path d="M226.257 18.8648C237.706 18.6026 242.513 23.5842 242.513 29.0901C242.513 35.6448 235.609 42.9861 224.772 42.9861H224.072C228.617 39.8399 231.938 34.3339 231.938 29.0027C231.938 25.2447 230.277 21.5741 226.257 18.8648ZM222.761 18.8648C218.916 24.7203 217.168 30.6633 217.168 35.907C217.168 46.482 224.072 54.5224 234.21 54.5224C237.269 54.5224 240.678 53.8232 244.173 52.1627C240.765 60.3779 234.21 63.6116 227.568 63.6116C214.371 63.6116 206.156 53.0367 206.156 40.4516C206.156 31.1876 210.788 21.7489 222.761 18.8648Z" fill="#1E1E1E"/>
<path d="M270.553 18.8648C282.001 18.6026 286.808 23.5842 286.808 29.0901C286.808 35.6448 279.904 42.9861 269.067 42.9861H268.368C272.912 39.8399 276.233 34.3339 276.233 29.0027C276.233 25.2447 274.573 21.5741 270.553 18.8648ZM267.057 18.8648C263.211 24.7203 261.463 30.6633 261.463 35.907C261.463 46.482 268.368 54.5224 278.506 54.5224C281.564 54.5224 284.973 53.8232 288.469 52.1627C285.06 60.3779 278.506 63.6116 271.864 63.6116C258.667 63.6116 250.452 53.0367 250.452 40.4516C250.452 31.1876 255.084 21.7489 267.057 18.8648Z" fill="#1E1E1E"/>
<path d="M231.962 3.30518C232.328 3.30518 232.522 3.73814 232.277 4.01073L222.771 14.6267H216.407L222.739 3.30518H231.962Z" fill="#1E1E1E"/>
</svg>
