<svg width="202" height="57" viewBox="0 0 202 57" fill="none" xmlns="http://www.w3.org/2000/svg">
<path d="M18.558 0.95924C12.7395 3.2254 9.18711 12.9025 9.18711 22.5796C9.18711 32.318 12.7395 42.1176 18.6192 44.6287C5.75725 44.3225 0 33.5429 0 22.8246C0 11.8613 5.941 0.897993 18.558 0.95924ZM21.0691 0.95924C33.6861 0.897993 39.6271 11.8613 39.6271 22.8246C39.6271 33.5429 33.8698 44.3225 21.0691 44.6287C26.8876 42.1176 30.4399 32.318 30.4399 22.5796C30.4399 12.9025 26.8876 3.2254 21.0691 0.95924Z" fill="white"/>
<path d="M65.8113 13.0863C71.6298 13.0863 71.6298 22.4571 64.9538 22.4571C64.0351 17.6798 59.1353 17.1286 56.3179 20.6197C57.9103 15.5362 62.0139 13.0863 65.8113 13.0863ZM54.4192 21.4159V44.1388H45.8446V13.515H46.4571C51.2344 13.515 54.4192 16.6999 54.4192 21.4159Z" fill="white"/>
<path d="M85.0917 44.1388C91.7677 42.3626 95.1363 35.8091 95.1363 29.1944C95.1363 22.2121 91.339 15.1074 83.6218 13.515C85.153 13.2087 86.6842 13.0863 88.0316 13.0863C98.6274 13.0863 103.772 21.1097 103.772 29.0719C103.772 36.8503 98.8724 44.5675 89.2566 44.5675C87.9704 44.5675 86.5617 44.445 85.0917 44.1388ZM83.0093 21.4159V56.3883H74.4347V13.515H75.1084C79.8245 13.515 83.0093 16.6999 83.0093 21.4159Z" fill="white"/>
<path d="M117.924 1.26548H118.597V44.1388H110.023V9.16641C110.023 4.45035 113.146 1.26548 117.924 1.26548ZM129.377 24.4783C129.377 19.946 127.417 18.0473 125.212 18.0473C123.62 18.0473 121.905 19.0273 120.557 20.6197C122.211 15.5974 126.253 13.0863 130.051 13.0863C134.154 13.0863 137.952 16.0261 137.952 21.7834V44.1388H129.377V24.4783Z" fill="white"/>
<path d="M158.234 13.515C166.257 13.3312 169.626 16.8224 169.626 20.6809C169.626 25.2745 164.787 30.4193 157.192 30.4193H156.702C159.887 28.2144 162.215 24.3558 162.215 20.6197C162.215 17.9861 161.051 15.4137 158.234 13.515ZM155.784 13.515C153.089 17.6186 151.864 21.7834 151.864 25.4583C151.864 32.8692 156.702 38.504 163.807 38.504C165.951 38.504 168.339 38.014 170.789 36.8503C168.401 42.6076 163.807 44.8737 159.152 44.8737C149.904 44.8737 144.147 37.4628 144.147 28.6431C144.147 22.1509 147.393 15.5362 155.784 13.515Z" fill="white"/>
<path d="M189.276 13.515C197.299 13.3312 200.668 16.8224 200.668 20.6809C200.668 25.2745 195.829 30.4193 188.235 30.4193H187.745C190.93 28.2144 193.257 24.3558 193.257 20.6197C193.257 17.9861 192.093 15.4137 189.276 13.515ZM186.826 13.515C184.131 17.6186 182.906 21.7834 182.906 25.4583C182.906 32.8692 187.745 38.504 194.849 38.504C196.993 38.504 199.382 38.014 201.832 36.8503C199.443 42.6076 194.849 44.8737 190.195 44.8737C180.946 44.8737 175.189 37.4628 175.189 28.6431C175.189 22.1509 178.435 15.5362 186.826 13.515Z" fill="white"/>
<path d="M162.231 2.61084C162.487 2.61084 162.623 2.91426 162.452 3.10529L155.79 10.545H151.33L155.767 2.61084H162.231Z" fill="white"/>
</svg>
