<svg width="132" height="37" viewBox="0 0 132 37" fill="none" xmlns="http://www.w3.org/2000/svg">
<path d="M12.1236 0.308028C8.3225 1.78848 6.0018 8.11039 6.0018 14.4323C6.0018 20.7942 8.3225 27.1962 12.1636 28.8367C3.76113 28.6366 0 21.5945 0 14.5923C0 7.43018 3.88116 0.268017 12.1236 0.308028ZM13.7641 0.308028C22.0066 0.268017 25.8878 7.43018 25.8878 14.5923C25.8878 21.5945 22.1266 28.6366 13.7641 28.8367C17.5653 27.1962 19.886 20.7942 19.886 14.4323C19.886 8.11039 17.5653 1.78848 13.7641 0.308028Z" fill="black"/>
<path d="M42.9935 8.23042C46.7947 8.23042 46.7947 14.3523 42.4333 14.3523C41.8332 11.2313 38.6322 10.8712 36.7917 13.1519C37.832 9.83091 40.5128 8.23042 42.9935 8.23042ZM35.5513 13.6721V28.5166H29.9496V8.51051H30.3497C33.4707 8.51051 35.5513 10.5911 35.5513 13.6721Z" fill="black"/>
<path d="M55.5892 28.5166C59.9505 27.3562 62.1511 23.0749 62.1511 18.7536C62.1511 14.1922 59.6704 9.55082 54.6289 8.51051C55.6292 8.31045 56.6295 8.23042 57.5097 8.23042C64.4318 8.23042 67.7928 13.472 67.7928 18.6736C67.7928 23.7551 64.5919 28.7966 58.31 28.7966C57.4697 28.7966 56.5495 28.7166 55.5892 28.5166ZM54.2288 13.6721V36.519H48.6271V8.51051H49.0672C52.1481 8.51051 54.2288 10.5911 54.2288 13.6721Z" fill="black"/>
<path d="M77.0378 0.508089H77.4779V28.5166H71.8762V5.66965C71.8762 2.58872 73.9168 0.508089 77.0378 0.508089ZM84.52 15.6727C84.52 12.7118 83.2396 11.4714 81.7992 11.4714C80.7589 11.4714 79.6386 12.1116 78.7583 13.1519C79.8386 9.87092 82.4794 8.23042 84.9602 8.23042C87.641 8.23042 90.1217 10.151 90.1217 13.9121V28.5166H84.52V15.6727Z" fill="black"/>
<path d="M103.372 8.51051C108.613 8.39047 110.814 10.6712 110.814 13.1919C110.814 16.1928 107.653 19.5539 102.691 19.5539H102.371C104.452 18.1134 105.972 15.5927 105.972 13.1519C105.972 11.4314 105.212 9.75089 103.372 8.51051ZM101.771 8.51051C100.011 11.1913 99.2104 13.9121 99.2104 16.3129C99.2104 21.1543 102.371 24.8354 107.013 24.8354C108.413 24.8354 109.974 24.5154 111.574 23.7551C110.014 27.5163 107.013 28.9967 103.972 28.9967C97.93 28.9967 94.1688 24.1552 94.1688 18.3935C94.1688 14.1522 96.2895 9.83091 101.771 8.51051Z" fill="black"/>
<path d="M123.651 8.51051C128.893 8.39047 131.093 10.6712 131.093 13.1919C131.093 16.1928 127.932 19.5539 122.971 19.5539H122.651C124.731 18.1134 126.252 15.5927 126.252 13.1519C126.252 11.4314 125.492 9.75089 123.651 8.51051ZM122.051 8.51051C120.29 11.1913 119.49 13.9121 119.49 16.3129C119.49 21.1543 122.651 24.8354 127.292 24.8354C128.693 24.8354 130.253 24.5154 131.854 23.7551C130.293 27.5163 127.292 28.9967 124.251 28.9967C118.21 28.9967 114.448 24.1552 114.448 18.3935C114.448 14.1522 116.569 9.83091 122.051 8.51051Z" fill="black"/>
<path d="M105.983 1.38696C106.151 1.38696 106.24 1.58518 106.128 1.70998L101.776 6.57023H98.8618L101.761 1.38696H105.983Z" fill="black"/>
</svg>
